<?xml version="1.0" encoding="utf-8"?>
<!-- Generator: Adobe Illustrator 18.1.1, SVG Export Plug-In . SVG Version: 6.00 Build 0)  -->
<svg version="1.1" id="Layer_1" xmlns="http://www.w3.org/2000/svg" xmlns:xlink="http://www.w3.org/1999/xlink" x="0px" y="0px"
	 viewBox="0 600 200 200" enable-background="new 0 600 200 200" xml:space="preserve">
<path d="M132,632c0,17.8-14.2,32-32,32s-32-14.2-32-32c0-17.8,14.2-32,32-32S132,614.2,132,632z"/>
<path d="M64,768c0,17.8-14.2,32-32,32S0,785.8,0,768c0-17.8,14.2-32,32-32S64,750.2,64,768z"/>
<path d="M132,700c0,17.8-14.2,32-32,32s-32-14.2-32-32s14.2-32,32-32S132,682.2,132,700z"/>
<path d="M200,700c0,17.8-14.2,32-32,32s-32-14.2-32-32c0-17.5,14.2-32,32-32S200,682.2,200,700z"/>
<path d="M200,766.7c0,17.8-14.2,32-32,32s-32-14.2-32-32c0-17.8,14.2-32,32-32S200,748.9,200,766.7z"/>
</svg>
