<?xml version="1.0" encoding="utf-8"?>
<!-- Generator: Adobe Illustrator 18.1.1, SVG Export Plug-In . SVG Version: 6.00 Build 0)  -->
<svg version="1.1" id="Layer_1" xmlns="http://www.w3.org/2000/svg" xmlns:xlink="http://www.w3.org/1999/xlink" x="0px" y="0px"
	 viewBox="0 0 288 276.6" enable-background="new 0 0 288 276.6" xml:space="preserve">
<path fill="#F4AE41" d="M266.9,122.9L144,0L21.1,122.9C-7,151-7,196.6,21.1,224.7s73.7,28.1,101.8,0l21.1-21.1l21.1,21.1
	c28.1,28.1,73.7,28.1,101.8,0S295,151,266.9,122.9z M216,233.2c-16.4,0-31.2-6.6-42-17.4l-30-30l-30,30
	c-10.8,10.8-25.6,17.4-42,17.4c-32.8,0-59.4-26.6-59.4-59.4c0-16.4,6.7-31.3,17.4-42l114-114l114,114c10.8,10.7,17.4,25.6,17.4,42
	C275.4,206.6,248.8,233.2,216,233.2z"/>
<path fill="#F4AE41" d="M144,217.1c-14.7,24.4-41.5,40.7-72,40.7v18.8h144v-18.8C185.5,257.8,158.7,241.5,144,217.1z M110.8,264
	c12.7-5.5,24-13.5,33.2-23.5c9.2,10,20.5,18,33.2,23.5H110.8z"/>
<path fill="#F4AE41" d="M144,71c-25.9,0-46.8,20.9-46.8,46.8c0,25.8,21,46.8,46.8,46.8c25.8,0,46.8-21,46.8-46.8
	C190.8,92,169.8,71,144,71z M166.5,103.1c6,0,10.8,4.8,10.8,10.8c0,6-4.8,10.8-10.8,10.8c-6,0-10.8-4.8-10.8-10.8
	C155.7,108,160.5,103.1,166.5,103.1z M122.6,148.1c-6,0-10.8-4.8-10.8-10.8c0-6,4.8-10.8,10.8-10.8c6,0,10.8,4.8,10.8,10.8
	C133.4,143.3,128.6,148.1,122.6,148.1z M143.1,124.7c-6,0-10.8-4.8-10.8-10.8c0-6,4.8-10.8,10.8-10.8c6,0,10.8,4.8,10.8,10.8
	C153.9,119.9,149.1,124.7,143.1,124.7z M144,102.2c-6,0-10.8-4.8-10.8-10.8c0-6,4.8-10.8,10.8-10.8c6,0,10.8,4.8,10.8,10.8
	C154.8,97.4,150,102.2,144,102.2z M166.5,148.1c-6,0-10.8-4.8-10.8-10.8c0-6,4.8-10.8,10.8-10.8c6,0,10.8,4.8,10.8,10.8
	C177.3,143.3,172.5,148.1,166.5,148.1z"/>
<path fill="#F29C1F" d="M160.4,260.1h-32.8c5.9-3.8,11.4-8.2,16.4-13.2C149,251.8,154.5,256.2,160.4,260.1z"/>
<path fill="#F29C1F" d="M254.2,135.6L144,25.5L33.8,135.6C24,145.4,18,158.9,18,173.8c0,29.8,24.2,54,54,54c14.9,0,28.4-6,38.2-15.8
	l33.8-33.8l33.8,33.8c9.8,9.8,23.3,15.8,38.2,15.8c29.8,0,54-24.2,54-54C270,158.9,264,145.4,254.2,135.6z M80.4,179.1
	c-2,2.2-5.7,4.9-12.2,4.9h-6.9v16.6h-7.7v-49h14.5c6.5,0,10.2,2.6,12.2,4.8c2.6,2.9,4,6.8,4,11.3C84.3,172.4,83,176.3,80.4,179.1z
	 M144,170.9c-29.3,0-53.1-23.8-53.1-53.1c0-29.3,23.8-53.1,53.1-53.1c29.3,0,53.1,23.8,53.1,53.1C197.1,147.1,173.3,170.9,144,170.9
	z M242.2,200.6h-7.7v-21.1H215v21.1h-7.7v-49h7.7v20.9h19.5v-20.9h7.7V200.6z M68.2,158.5h-6.9v18.6h6.9c3.2,0,5.5-0.9,7.1-2.6
	c1.8-2,2.2-4.8,2.2-6.7c0-1.9-0.4-4.7-2.2-6.7C73.7,159.4,71.3,158.5,68.2,158.5z"/>
</svg>
